<svg width="1148" height="808" viewBox="0 0 1148 808" fill="none" xmlns="http://www.w3.org/2000/svg">
<path d="M662.53 554.99C663.093 555.272 663.882 555.384 664.221 555.891C675.266 570.938 686.706 585.815 694.708 602.834C696.004 605.595 696.455 608.807 696.906 611.907C697.131 613.372 696.906 615.514 696.004 616.359C691.777 620.304 691.045 625.77 688.96 630.673C687.551 633.997 685.635 636.421 682.028 637.435C680.732 637.773 679.436 638.28 678.365 639.069C675.153 641.436 671.603 641.774 668.109 640.366C662.248 638.055 656.162 636.026 650.865 632.758C632.832 621.656 614.742 610.611 597.329 598.607C553.655 568.515 513.418 534.083 475.267 497.284C431.706 455.244 388.877 412.359 345.71 369.868C330.326 354.709 314.828 339.663 299.387 324.56C298.091 323.32 296.795 322.024 295.33 321.01C291.949 318.643 288.398 316.389 284.961 314.078C284.51 314.304 284.003 314.585 283.552 314.811C284.566 322.813 284.961 330.928 286.708 338.705C289.695 352.061 293.527 365.247 297.077 378.434C297.415 379.618 298.317 380.688 298.937 381.815L298.768 381.59C300.345 388.803 301.585 396.129 306.375 402.159C306.375 403.455 306.263 404.751 306.206 406.047C307.39 408.358 308.573 410.725 309.756 413.035L309.587 412.753C310.207 416.867 310.94 420.981 314.49 423.799C314.659 424.869 314.828 425.94 315.054 427.011C316.406 431.237 317.759 435.52 319.111 439.747C319.449 439.634 319.787 439.521 320.126 439.409C319.844 437.323 319.506 435.238 319.224 433.153L319.055 433.322C322.323 440.592 325.592 447.918 328.86 455.188C338.553 476.602 348.246 498.073 357.882 519.487C358.671 521.29 359.01 523.263 359.573 525.179L359.742 525.066C358.221 523.037 356.643 521.065 355.121 519.036C354.952 519.093 354.783 519.205 354.558 519.262C356.699 523.714 358.897 528.222 361.038 532.674C361.884 533.97 362.785 535.21 363.63 536.506C363.63 539.267 364.532 541.521 367.181 542.817C374.112 556.962 381.044 571.107 388.032 585.252C391.695 592.296 395.358 599.396 399.021 606.441L398.795 606.159C402.402 613.598 405.783 621.205 409.615 628.531C423.76 655.863 438.074 683.138 452.331 710.413C452.725 711.146 453.233 711.765 454.36 713.4V709.23L454.191 709.342C455.712 711.935 457.628 714.414 458.643 717.232C462.644 728.446 466.701 739.66 470.026 751.1C473.238 762.146 472.337 772.965 465.687 782.884C465.067 783.785 464.56 784.856 464.165 785.927C458.192 803.509 438.693 810.159 422.013 805.876C408.093 802.326 395.414 796.07 382.96 789.252C342.272 767.048 304.628 740.449 268.9 710.92C222.296 672.374 182.003 627.911 144.866 580.405C127.791 558.596 111.392 536.224 95.3874 513.626C82.4825 495.48 70.1974 476.884 58.4195 458.005C40.0482 428.645 22.6913 398.609 10.2372 366.093C6.29242 355.836 3.53109 345.129 0.769769 334.478C-0.695424 328.843 -0.0755339 327.49 2.68579 321.968C5.61618 328.505 5.27808 335.324 8.20846 341.241C8.32117 334.084 7.75761 326.927 9.22281 319.995C9.8427 319.939 10.4063 319.826 11.0261 319.77C11.9842 322.982 12.9985 326.138 14.2383 330.195C15.3654 325.969 13.2239 322.024 16.6051 319.15C20.7753 320.39 20.5499 323.771 21.2825 326.814C21.4516 325.349 21.677 323.884 21.846 322.362C22.1278 322.25 22.4096 322.08 22.6913 321.968C23.3112 323.377 24.2692 324.785 24.4946 326.251C25.9035 334.76 29.0593 342.537 33.6803 349.806C35.6526 352.906 37.2869 356.4 38.3576 359.95C40.8372 368.403 45.4018 375.616 50.0228 383.111C53.4604 388.69 57.9687 393.593 60.7863 399.623C63.5477 405.484 67.1543 411.006 70.6482 416.529C79.4957 430.392 88.456 444.142 97.3598 457.949C98.8814 460.316 100.685 462.232 100.065 465.782C99.6703 467.867 101.981 470.629 103.559 472.826C112.519 485.168 121.536 497.453 130.552 509.681C132.074 511.541 133.595 513.401 135.06 515.261C141.428 523.263 147.796 531.265 154.221 539.267C156.08 541.803 157.94 544.395 159.8 546.931L159.574 546.706C160.589 548.396 161.434 550.256 162.73 551.778C171.465 562.428 180.312 573.079 189.16 583.617C190.005 584.632 191.189 585.308 192.203 586.097L192.09 585.872C194.852 589.14 197.669 592.352 200.431 595.621L200.205 595.339C203.868 599.678 207.531 604.074 211.194 608.413L213.786 609.54C216.266 614.837 225.733 625.094 230.861 628.024C233.848 631.18 236.891 634.392 239.878 637.548C240.836 638.844 241.85 640.084 242.808 641.38C244.668 642.789 246.528 644.141 248.444 645.55C249.064 646.17 249.684 646.79 250.303 647.41C251.712 649.269 253.065 651.129 254.474 652.989C254.643 653.158 254.812 653.327 254.981 653.496C257.517 655.581 260.053 657.666 262.589 659.695C263.885 660.54 265.181 661.386 266.477 662.231C267.266 663.414 268.111 664.541 269.576 666.683C269.464 664.541 269.407 663.696 269.351 662.907L269.238 663.076C270.929 664.147 272.789 664.992 274.254 666.288C308.855 697.057 346.104 724.22 385.665 748.17C396.992 755.045 408.601 761.582 420.379 767.668C426.296 770.711 432.945 772.458 440.722 775.332C440.271 771.838 440.215 769.697 439.764 767.725C436.383 753.411 430.804 739.829 424.323 726.699C408.882 695.648 393.272 664.71 377.324 633.885C345.935 573.248 315.617 512.161 290.484 448.594C277.973 416.98 266.533 384.915 258.982 351.666C256.164 339.381 253.741 326.983 254.417 314.247C254.643 310.246 255.206 306.189 256.164 302.244C257.46 296.89 260.842 293.509 266.082 291.199C272.507 288.325 278.875 285.732 285.919 285.169C294.654 284.493 302.712 285.901 310.095 291.368C321.027 299.426 331.791 307.598 341.822 316.783C343.963 318.699 346.499 320.164 348.697 322.024C350.726 323.715 352.923 325.462 354.219 327.659C355.685 330.139 357.601 331.097 360.137 331.491C360.869 334.985 362.672 337.183 366.561 336.845C369.153 339.55 371.295 343.157 374.394 344.791C377.944 346.651 378.564 350.539 381.213 352.399C384.2 354.484 384.819 358.992 388.651 359.556C392.596 360.119 393.836 363.557 396.485 365.473L394.569 366.712C394.963 367.163 395.583 368.009 395.808 367.952C396.428 367.671 396.935 367.051 397.499 366.543C401.049 370.432 405.896 373.25 407.135 378.941C407.305 379.618 408.432 380.688 408.995 380.632C413.672 380.012 415.476 384.013 418.012 386.493C449.795 416.811 481.297 447.411 513.306 477.56C528.69 492.099 544.864 505.793 560.699 519.881C562.22 521.234 563.686 522.643 564.925 524.221C565.207 524.559 564.475 525.63 564.193 526.362C563.122 525.348 562.108 524.39 561.037 523.376C560.812 523.657 560.586 523.995 560.361 524.277C561.657 524.897 563.009 525.573 564.306 526.193C566.278 530.645 570.448 532.561 574.224 534.984L574.055 534.872C576.083 536.506 578.169 538.196 580.254 539.831C581.493 540.901 582.677 542.029 583.917 543.099C584.142 542.761 584.367 542.423 584.537 542.085C583.071 541.409 581.606 540.676 580.085 540C579.916 539.154 579.803 538.253 579.408 536.28C597.442 549.974 614.798 563.161 632.155 576.348C632.493 572.516 630.239 570.318 628.605 567.895C612.544 544.001 596.033 520.389 580.423 496.213C560.474 465.331 542.384 433.379 526.323 400.299C506.6 359.725 488.961 318.305 477.07 274.687C472.449 257.781 469.406 240.424 466.025 223.18C464.954 217.714 464.954 211.966 465.011 206.33C465.067 195.905 467.208 187.057 478.93 182.887C490.201 178.886 501.021 176.914 512.235 181.873C518.828 184.803 525.027 188.241 530.437 193.256C534.776 197.314 540.412 199.906 544.864 203.851C557.092 214.727 569.265 225.772 581.043 237.156C601.612 257.048 621.955 277.167 642.186 297.398C656.838 312.05 671.039 327.096 685.578 341.861C698.371 354.822 711.388 367.501 724.181 380.463C726.097 382.379 729.365 383.675 728.689 387.338L728.858 387.169L714.319 373.869L713.361 374.771C715.39 376.969 717.306 379.223 719.447 381.308C733.423 394.946 747.173 408.809 761.487 421.995C772.476 432.139 784.254 441.494 795.75 451.186C796.37 451.694 797.384 451.806 798.229 452.088L798.004 451.863C805.837 459.752 814.234 466.853 823.927 472.375L823.701 472.15C825.617 473.559 827.477 475.024 829.393 476.433L829.111 476.207C831.027 477.616 832.887 479.082 834.803 480.49L834.521 480.321C835.93 481.505 837.339 482.688 838.748 483.872L838.409 483.759C843.256 486.689 848.102 489.676 853.005 492.606C855.203 494.353 857.344 496.157 859.542 497.904C861.345 499.087 863.149 500.27 865.008 501.454C865.234 501.285 865.459 501.059 865.685 500.89C865.234 500.045 864.783 499.143 864.388 498.298C870.869 501.848 877.293 505.399 883.774 509.005C884.169 508.78 884.563 508.498 884.958 508.273C884.394 506.3 884 504.215 883.211 502.299C873.743 480.659 864.388 458.963 854.583 437.436C838.466 401.934 822.574 366.374 809.782 329.575C802.456 308.387 795.975 286.859 789.1 265.501C788.311 263.135 787.635 260.711 789.833 258.626L789.664 258.739C790.847 259.866 792.65 260.768 793.101 262.12C797.722 275.645 802.681 289.114 806.513 302.864C812.374 323.884 821.841 343.439 829.731 363.613C838.071 384.971 848.159 405.596 857.457 426.56C863.149 439.465 868.728 452.426 874.589 465.219C877.293 471.079 880.506 476.658 884.563 482.125C884.169 480.378 884.112 478.518 883.38 476.94C876.786 461.443 870.306 445.946 863.43 430.617C856.443 415.007 848.609 399.792 842.016 384.069C832.774 361.866 823.758 339.494 815.812 316.783C808.429 295.707 802.456 274.123 796.201 252.709C792.876 241.326 790.114 229.717 787.353 218.221C785.775 211.684 784.648 205.034 783.296 198.384C782.788 195.848 782.112 193.312 781.549 190.777C781.098 190.833 780.647 190.946 780.196 191.002C781.098 200.3 782.056 209.599 782.845 218.953C783.014 221.095 782.789 223.293 782.394 225.434C782.112 227.181 781.492 228.534 783.465 230.111C784.986 231.295 785.212 233.831 781.38 234.225C780.534 230.28 779.633 226.448 778.844 222.56C776.308 210.106 772.758 197.764 773.321 184.916C773.547 179.111 774.166 173.194 775.857 167.672C777.04 163.783 779.802 159.951 782.845 157.246C793.101 148.117 804.992 141.862 818.573 139.1C825.786 137.635 832.943 137.861 839.762 140.791C845.51 143.271 851.314 145.694 856.837 148.68C871.095 156.514 885.747 163.22 901.526 167.221C909.753 169.306 911.5 168.461 915.896 161.247C920.798 153.132 922.32 144.003 923.672 134.874C924.856 126.646 925.87 118.419 926.716 110.135C929.026 87.4805 938.099 77.1677 962.613 69.2219C971.798 66.2351 981.322 67.0241 990.79 67.9821C996.369 68.5456 1002 69.0529 1007.58 69.5037C1012.71 69.8982 1017.39 68.7148 1021.67 65.7844C1029.45 60.4308 1037.34 55.1899 1045.23 49.949C1051.26 45.9479 1057.62 42.5666 1064.95 41.4396C1069.57 40.7633 1070.14 41.327 1071.94 47.5259C1060.95 56.7115 1049.62 66.2353 1038.18 75.7027C1034.91 78.4076 1031.36 80.8871 1027.87 83.3667C1019.98 89.002 1011.13 92.496 1001.5 92.9468C991.635 93.3977 981.717 93.1159 971.855 92.5523C961.88 91.9324 962.218 91.1998 960.02 101.456C957.935 111.093 956.808 120.955 955.118 130.647C954.723 132.732 953.709 134.761 952.92 136.79C952.751 137.184 952.3 137.579 952.356 137.917C953.653 144.679 949.595 150.202 947.566 156.007C945.932 160.628 942.438 164.91 938.888 168.461C933.365 173.983 927.223 178.999 921.08 183.901C916.234 187.733 910.373 189.65 904.343 190.664C892.114 192.749 879.998 191.904 868.559 187.114C855.316 181.535 842.354 175.223 829.336 169.137C825.054 167.164 820.94 164.741 816.601 162.938C808.993 159.782 805.443 162.036 804.935 170.151C804.654 175.054 804.823 180.013 804.823 184.916C804.823 185.93 804.823 186.888 804.034 187.959C803.696 187.226 803.414 186.494 802.625 184.747C803.639 205.485 808.655 224.532 812.149 244.031C811.529 243.129 810.627 242.34 810.402 241.382C808.317 233.831 806.457 226.223 804.372 218.672C803.865 216.756 802.681 215.065 801.836 213.262C801.611 209.542 801.329 205.879 801.103 202.216C800.54 202.273 800.033 202.385 799.469 202.442C800.314 205.992 801.103 209.599 801.949 213.149C803.188 223.293 804.879 233.267 808.373 242.96C809.951 247.412 810.909 252.146 806.513 255.865L806.682 255.696C805.668 253.836 804.259 252.033 803.639 250.004C802.118 245.327 800.934 240.537 799.582 235.803C799.244 234.676 798.511 233.605 796.708 232.873C797.271 236.648 797.722 240.48 798.455 244.256C799.131 247.919 799.92 251.582 800.991 255.189C802.343 259.641 804.09 264.036 805.555 268.432C808.598 277.561 811.472 286.747 814.572 295.82C816.826 302.357 819.249 308.781 821.729 315.205C822.18 316.332 823.363 317.178 825.11 319.206C824.434 316.276 824.208 314.642 823.701 313.064C821.165 304.949 818.404 296.947 815.981 288.776C815.361 286.634 815.868 284.154 815.868 281.449C810.289 276.716 809.613 273.335 813.276 266.854C813.783 267.248 814.459 267.53 814.628 268.037C816.995 274.293 819.418 280.548 821.56 286.86C822.011 288.099 821.56 289.677 821.447 291.086C821.447 291.65 821.109 292.551 821.334 292.664C827.477 296.947 826.068 304.949 829.956 310.302C831.14 311.937 832.38 313.571 833.619 315.205C834.014 318.136 834.183 321.122 834.916 323.94C835.141 324.785 836.888 325.236 837.902 325.856C836.606 328.956 837.395 331.266 840.382 332.788C839.931 335.549 840.382 338.029 842.805 339.832C844.496 346.369 845.735 353.131 850.413 358.485C849.173 351.779 846.693 345.524 842.692 339.945C841.903 337.578 841.058 335.211 840.269 332.9C839.424 330.59 838.635 328.279 837.79 325.969C836.381 322.418 834.972 318.868 833.507 315.318C832.154 310.246 830.802 305.118 829.449 300.046C829.9 299.877 830.351 299.652 830.802 299.483C831.534 300.835 832.549 302.131 833.056 303.597C843.087 331.717 854.527 359.274 866.981 386.436C867.77 388.183 869.009 389.705 870.08 391.339L869.855 391.114C870.982 395.735 871.771 400.525 876.11 403.511L876.617 405.709C877.519 410.387 878.477 415.007 882.196 418.445L882.027 418.163C884.338 423.235 886.648 428.307 888.959 433.322L888.733 433.097C891.156 438.901 893.354 444.762 896.059 450.398C897.637 453.666 898.144 457.385 902.427 459.527C904.963 460.767 905.752 465.613 907.499 469.163H903.949C905.752 472.263 907.217 475.249 909.077 478.011C916.628 489.112 919.277 501.679 919.728 514.81C919.728 516.557 919.164 518.36 918.488 519.994C916.234 525.404 913.98 530.814 911.444 536.055C907.386 544.508 895.665 550.538 885.916 548.791C880.844 547.889 875.603 546.649 871.151 544.226C856.499 536.337 841.791 528.447 827.759 519.487C800.033 501.736 774.674 480.828 749.934 459.132C699.103 414.5 652.612 365.416 605.5 317.009C573.604 284.211 541.144 252.033 508.741 219.742C504.627 215.629 500.626 210.838 493.469 209.035C494.765 217.77 495.554 226.054 497.188 234.113C502.148 258.175 509.474 281.562 518.152 304.498C519.166 307.147 521.026 309.457 522.491 311.937L522.379 312.219C523.449 316.051 524.238 319.995 525.591 323.715C527.056 327.716 528.972 331.491 531.395 335.38C531.339 334.196 531.282 332.957 531.17 331.773L532.071 331.604C533.367 334.647 534.607 337.69 536.016 340.677C542.328 354.315 548.696 367.896 555.064 381.533C555.796 383.168 556.416 384.858 557.036 386.493C556.134 386.267 555.289 386.042 554.106 385.704C555.064 388.578 556.022 386.718 556.923 386.436C560.361 392.691 563.742 399.003 567.292 405.258C576.76 421.826 586.283 438.338 595.751 454.85C596.709 456.54 597.329 458.456 598.118 460.259L598.287 460.147H594.906C597.16 462.457 598.794 464.091 600.372 465.726C600.992 466.796 601.612 467.867 602.288 468.938C603.697 471.53 605.106 474.066 606.458 476.658L606.233 476.376C608.092 479.194 610.008 481.956 611.868 484.773L611.643 484.491C613.446 489.507 615.869 494.015 620.659 496.889C623.984 502.017 627.309 507.146 630.634 512.274C632.381 518.078 635.931 522.643 640.27 526.7L640.045 526.419C641.116 528.335 641.961 530.42 643.257 532.223C654.528 548.002 665.855 563.668 677.125 579.391C679.83 583.11 682.479 586.886 685.128 590.662C685.128 588.633 684.508 587.111 683.55 585.759C678.196 577.982 672.73 570.262 667.433 562.429C665.855 560.062 664.615 557.413 663.263 554.933L663.15 555.046L662.53 554.99ZM498.203 321.855C498.316 320.108 498.485 318.417 498.597 316.67C498.259 316.67 497.865 316.67 497.527 316.67C497.752 318.361 497.977 320.052 498.203 321.799C499.33 324.165 500.513 326.589 501.64 328.956C501.64 325.856 501.697 322.7 498.203 321.799V321.855ZM433.847 683.476C434.861 685.617 435.819 687.759 436.834 689.9C437.341 689.562 437.792 689.224 438.299 688.942C436.721 687.195 435.2 685.448 433.622 683.702C433.622 679.193 432.551 675.248 428.099 673.051C429.001 670.853 428.606 669.162 425.507 667.81C426.634 669.951 427.423 671.416 428.268 672.938C430.128 676.488 431.987 679.982 433.847 683.532V683.476ZM493.018 226.618C491.102 231.182 492.173 235.465 494.934 239.579L492.962 226.674C492.004 220.757 491.046 214.896 490.032 208.979C489.412 214.445 489.919 219.742 490.651 224.983C490.764 225.603 492.173 226.054 492.962 226.618H493.018ZM753.71 450.341C753.334 452.032 753.973 452.971 755.626 453.159C756.077 452.708 756.471 452.314 756.922 451.863C755.795 451.356 754.724 450.905 753.597 450.398C751.287 447.58 748.92 444.762 745.708 440.874C745.257 443.297 744.581 444.706 744.975 445.326C747.06 448.369 749.709 450.679 753.71 450.285V450.341ZM762.783 458.794L759.909 456.089C759.684 456.427 759.458 456.822 759.176 457.16C760.416 457.667 761.712 458.118 762.952 458.625C764.135 464.486 769.658 466.12 773.997 470.572C772.025 465.388 767.629 461.048 762.783 458.794ZM410.911 638.844C409.784 633.378 406.628 629.038 403.303 624.756C405.614 629.602 406.234 635.294 411.024 638.731C412.151 646.395 417.786 651.693 421.337 658.117C417.561 651.862 416.434 644.198 410.911 638.844ZM389.609 643.183C391.3 640.929 390.286 639.408 388.144 637.492C387.524 640.197 388.032 641.831 389.891 643.014C390.286 644.31 390.398 645.663 391.018 646.79C396.259 656.877 401.669 666.852 406.91 676.939C414.63 691.873 422.351 706.806 429.79 721.909C433.622 729.63 437.003 737.632 440.609 745.521C441.455 744.394 441.398 743.549 441.06 742.816C436.552 732.053 432.607 720.951 427.366 710.582C416.772 689.506 405.501 668.768 394.343 647.917C393.329 646.001 392.991 642.845 389.553 643.183H389.609ZM597.554 509.118C597.554 509.118 597.047 509.569 596.765 509.794C597.892 511.654 598.907 513.57 600.146 515.373C605.106 522.812 610.403 530.025 615.08 537.633C626.182 555.553 639.2 572.121 652.217 588.633C653.175 589.816 654.584 590.662 655.824 591.676C637.791 564.119 618.856 537.464 599.921 510.921C599.358 510.132 598.343 509.738 597.554 509.118ZM485.016 275.532C479.606 253.104 474.872 230.562 473.802 207.457C473.802 207.063 473.52 206.612 473.238 206.274C473.125 206.105 472.844 206.161 472.618 206.048C469.406 216.417 476.901 259.922 485.016 275.532ZM262.419 314.529C258.926 323.377 264.448 359.161 270.929 369.699C268.111 351.328 265.294 333.013 262.419 314.529ZM490.37 292.438C489.75 292.608 489.13 292.833 488.51 293.002C490.651 298.919 492.793 304.893 495.047 310.753C495.16 311.035 496.287 310.866 496.794 310.866C494.54 304.385 492.455 298.412 490.37 292.382V292.438ZM280.678 321.968L279.326 322.25L283.89 347.778C284.341 347.721 284.792 347.609 285.243 347.552C283.721 339.043 282.2 330.534 280.678 322.024V321.968ZM275.381 342.819C274.93 342.931 274.479 342.988 274.028 343.1C275.437 349.694 276.902 356.231 278.311 362.824C278.818 362.711 279.326 362.599 279.833 362.486L275.324 342.819H275.381ZM752.583 432.421C752.188 432.703 751.85 433.041 751.456 433.322C752.696 437.324 756.64 438.338 759.909 440.198C757.486 437.605 755.006 435.013 752.583 432.421ZM639.594 549.749C636.833 545.804 634.128 541.916 631.366 537.971C630.972 538.253 630.634 538.478 630.239 538.76C632.155 543.268 634.748 547.269 639.594 549.749ZM413.56 662.456C413.222 662.738 412.884 663.019 412.545 663.301C414.743 667.471 416.997 671.642 419.195 675.812C419.533 675.586 419.928 675.418 420.266 675.192L413.56 662.456ZM701.132 360.795C703.311 365.304 705.753 367.633 708.458 367.783C705.753 365.247 703.443 362.993 701.132 360.795ZM747.568 415.289C747.906 415.007 748.244 414.726 748.582 414.444L740.242 406.949C739.96 407.287 739.678 407.625 739.396 407.907C742.101 410.386 744.806 412.866 747.511 415.289H747.568ZM587.918 493.79C588.932 497.472 590.886 500.007 593.779 501.397C591.637 498.636 590.116 496.664 587.918 493.79ZM758.5 421.545C757.768 422.277 757.035 423.01 756.359 423.742C758.782 425.94 761.261 428.138 763.685 430.279C763.854 430.054 764.079 429.829 764.248 429.659C762.332 426.955 760.416 424.25 758.5 421.545ZM273.803 337.859L274.366 337.69C273.69 335.098 273.014 332.449 272.338 329.857C272.056 329.914 271.718 330.026 271.436 330.083C272.225 332.675 273.014 335.267 273.803 337.803V337.859ZM385.327 633.998C385.721 633.716 386.059 633.434 386.454 633.152C385.552 631.574 384.65 629.997 383.692 628.419L382.678 629.039C383.523 630.673 384.425 632.363 385.27 633.998H385.327ZM194.908 627.855C194.908 627.855 194.401 628.08 194.175 628.193C194.626 628.982 195.021 629.884 195.64 630.56C196.373 631.349 197.331 631.913 198.176 632.589C198.515 632.194 198.909 631.8 199.247 631.349C197.838 630.165 196.373 628.982 194.964 627.799L194.908 627.855ZM272.619 378.716C273.127 378.659 273.634 378.603 274.141 378.49C273.69 376.969 273.296 375.504 272.845 373.982C272.563 374.038 272.281 374.095 272 374.151C272.225 375.673 272.45 377.194 272.676 378.716H272.619ZM795.017 226.674C795.412 226.561 795.862 226.392 796.257 226.279C795.75 224.814 795.186 223.405 794.679 221.94C794.51 221.94 794.341 222.053 794.172 222.053C794.454 223.574 794.735 225.096 795.074 226.674H795.017ZM287.666 420.192C287.328 420.305 287.046 420.361 286.708 420.474L287.835 424.588C288.229 424.475 288.624 424.362 288.962 424.249C288.511 422.897 288.117 421.544 287.666 420.192ZM507.952 285.901L507.163 286.183C507.727 287.705 508.234 289.283 508.797 290.804L509.643 290.522C509.079 289.001 508.516 287.479 507.952 285.901ZM206.291 642.113C206.629 641.774 206.911 641.38 207.249 641.042C206.46 640.366 205.671 639.633 204.882 638.957L204.375 639.407C204.995 640.309 205.671 641.211 206.291 642.169V642.113ZM729.365 429.998C729.647 429.659 729.929 429.265 730.211 428.927C729.365 428.194 728.52 427.518 727.675 426.785L726.886 427.743C727.731 428.476 728.52 429.265 729.365 429.998ZM91.2736 494.466C90.6537 495.086 90.0339 495.649 89.414 496.269C90.5974 496.776 91.8372 497.284 93.8095 498.073C92.6825 496.495 91.9499 495.48 91.2736 494.466ZM774.617 439.352C774.786 439.014 774.955 438.676 775.124 438.338L772.589 436.647C772.589 436.647 772.25 437.098 772.138 437.324C772.983 438 773.828 438.62 774.617 439.296V439.352ZM278.875 394.382C278.48 394.551 278.142 394.664 277.748 394.833C278.142 395.678 278.48 396.524 278.875 397.369L279.72 397.031C279.438 396.129 279.156 395.227 278.875 394.382ZM283.552 678.46C283.552 678.46 283.89 678.01 284.059 677.841C283.214 677.108 282.312 676.432 281.467 675.699L280.96 676.375C281.805 677.052 282.707 677.784 283.552 678.46ZM339.906 486.802C339.906 486.802 340.356 486.577 340.582 486.464C340.075 485.562 339.624 484.604 339.117 483.703C338.891 483.815 338.666 483.928 338.384 484.097C338.891 484.999 339.398 485.9 339.906 486.858V486.802ZM740.523 421.714C740.185 422.052 739.847 422.446 739.453 422.784C740.242 423.404 741.03 423.968 741.819 424.588C742.158 424.249 742.496 423.855 742.834 423.517C742.045 422.953 741.312 422.333 740.523 421.77V421.714ZM510.319 321.348C510.319 321.348 510.713 321.122 510.882 321.01C510.601 320.164 510.319 319.263 510.037 318.417C509.699 318.53 509.417 318.643 509.079 318.812C509.474 319.657 509.924 320.503 510.319 321.348ZM651.541 549.749C651.259 549.974 650.921 550.143 650.639 550.369C651.541 551.721 652.499 553.074 653.401 554.426C653.682 554.201 654.02 554.032 654.302 553.806C653.401 552.454 652.443 551.101 651.541 549.693V549.749ZM597.272 554.201C597.498 553.919 597.667 553.637 597.892 553.356C597.103 552.792 596.314 552.172 595.526 551.609C595.356 551.834 595.187 552.003 595.018 552.229C595.751 552.905 596.54 553.525 597.272 554.201ZM645.117 559.724C645.117 559.724 645.68 559.385 645.962 559.16C645.117 557.864 644.271 556.568 643.37 555.215C643.088 555.384 642.75 555.61 642.468 555.779C643.313 557.075 644.215 558.371 645.06 559.667L645.117 559.724ZM777.491 472.15C777.379 472.432 777.209 472.77 777.097 473.052C778.111 473.502 779.125 474.01 780.14 474.461C780.309 474.122 780.422 473.784 780.591 473.503C779.576 473.052 778.562 472.601 777.548 472.15H777.491ZM503.275 302.695L504.064 302.244C503.556 301.455 503.106 300.722 502.598 299.933C502.373 300.046 502.148 300.215 501.922 300.328C502.373 301.117 502.824 301.906 503.218 302.695H503.275ZM539.961 357.189C539.961 357.189 540.412 356.963 540.581 356.851C540.13 355.893 539.679 354.991 539.228 354.033C539.003 354.146 538.721 354.315 538.496 354.427C539.003 355.329 539.51 356.287 539.961 357.189ZM533.818 341.072C533.48 341.353 533.198 341.635 532.86 341.861C533.48 342.875 534.044 343.889 534.664 344.904L535.396 344.509C534.889 343.382 534.326 342.199 533.818 341.072ZM333.707 471.699C333.707 471.699 333.312 471.925 333.087 471.981C333.538 472.883 333.989 473.784 334.383 474.686C334.608 474.573 334.834 474.461 335.059 474.348C334.608 473.446 334.158 472.601 333.65 471.699H333.707ZM380.424 622.445C379.917 622.219 379.353 621.938 378.846 621.713C378.846 622.107 378.79 622.614 378.959 622.952C379.128 623.234 379.635 623.403 379.973 623.572C380.086 623.234 380.255 622.952 380.424 622.445ZM682.479 341.804L681.07 343.213C681.521 343.664 682.028 344.115 682.479 344.509C682.93 344.058 683.437 343.551 683.888 343.1C683.381 342.649 682.93 342.199 682.423 341.804H682.479ZM692.566 352.173C692.172 352.511 691.777 352.906 691.439 353.244C692.228 353.864 692.961 354.54 693.75 355.16C693.975 354.935 694.201 354.653 694.426 354.427C693.806 353.695 693.186 352.906 692.623 352.173H692.566ZM218.013 636.59C218.013 636.59 217.675 636.984 217.506 637.153C218.069 637.661 218.689 638.168 219.253 638.675L219.76 638.055C219.14 637.548 218.576 637.041 217.957 636.59H218.013ZM767.517 446.058C767.517 446.058 767.066 446.509 766.84 446.735C767.179 447.129 767.573 447.58 767.967 447.918C767.967 447.918 768.306 447.749 768.418 447.693C768.137 447.185 767.798 446.622 767.517 446.115V446.058ZM704.908 372.63C704.908 372.63 704.513 373.137 704.288 373.419C704.739 373.757 705.133 374.151 705.584 374.489C705.753 374.32 705.866 374.151 706.035 373.982C705.697 373.531 705.302 373.081 704.964 372.63H704.908ZM825.843 325.18C826.293 324.954 826.744 324.729 827.195 324.504C826.632 323.771 826.124 322.982 825.561 322.25C825.335 322.362 825.11 322.475 824.885 322.588C825.166 323.433 825.505 324.278 825.786 325.18H825.843ZM550.443 377.645C550.443 377.645 549.935 377.983 549.71 378.096C550.104 378.772 550.499 379.392 550.95 380.068C551.175 379.899 551.457 379.73 551.682 379.617C551.288 378.941 550.893 378.321 550.443 377.645ZM668.898 328.843C668.898 328.843 668.56 328.899 668.447 328.956C668.672 329.294 668.898 329.632 669.123 329.914C669.18 329.97 669.461 329.914 669.687 329.801C669.405 329.463 669.18 329.181 668.898 328.843ZM504.683 333.407C504.402 333.52 504.12 333.633 503.782 333.689C504.12 334.309 504.458 334.985 504.796 335.605C504.965 335.549 505.134 335.493 505.303 335.38C505.078 334.704 504.853 334.027 504.627 333.351L504.683 333.407Z" fill="#e6e7e8"/>
<path d="M1120.74 40.7072C1109.24 40.4818 1103.78 36.5371 1100 27.0133C1097.92 21.6597 1099.27 20.9271 1103.89 16.926C1108.23 13.1503 1113.81 12.1923 1118.15 7.96578C1123.05 3.17572 1130.32 0.0198862 1138.1 0.358008C1144.18 0.639776 1148.47 4.64102 1147.96 10.8963C1147.28 18.2222 1144.58 24.9845 1138.94 29.9436C1134.94 33.4939 1130.26 36.368 1125.7 39.1857C1123.9 40.3128 1121.53 40.5382 1120.63 40.82L1120.74 40.7072Z" fill="#e6e7e8"/>
<path d="M387.975 585.252C381.043 571.107 374.112 556.962 367.124 542.818C366.898 541.409 366.673 540 366.448 538.591L366.279 538.76C370.449 546.593 374.732 554.37 378.789 562.203C384.875 573.868 390.849 585.59 396.822 597.312C397.611 598.89 398.062 600.58 398.682 602.271L398.851 602.158C397.555 600.467 396.09 598.889 394.963 597.086C392.539 593.198 390.229 589.197 387.918 585.252H387.975Z" fill="#e6e7e8"/>
<path d="M153.993 539.267C147.625 531.265 141.257 523.263 134.833 515.261C133.312 513.345 131.79 511.485 130.325 509.682C129.93 508.329 129.48 506.977 128.578 504.046C130.438 505.624 131.17 506.019 131.677 506.639C140.356 517.966 149.034 529.236 157.656 540.62C158.445 541.634 158.84 542.93 159.403 544.114L159.572 544.001L154.05 539.211L153.993 539.267Z" fill="#e6e7e8"/>
<path d="M630.07 512.218C626.745 507.089 623.421 501.961 620.096 496.833C617.109 492.719 614.122 488.549 611.079 484.435L611.305 484.717C610.854 482.857 610.403 480.998 609.952 479.082L609.783 479.251C612.375 482.801 615.08 486.295 617.616 489.902C623.533 498.355 629.394 506.808 635.198 515.317C636.438 517.12 637.227 519.205 638.185 521.178L638.354 521.065C635.593 518.135 632.832 515.148 630.127 512.218H630.07Z" fill="#e6e7e8"/>
<path d="M797.947 452.314C796.087 450.172 794.397 447.862 792.255 446.002C786.226 440.649 780.083 435.464 773.94 430.28C772.25 428.871 770.277 427.744 768.418 426.448C768.925 425.884 769.376 425.264 769.883 424.701C770.785 425.264 771.743 425.771 772.532 426.504C782.393 434.901 792.312 443.297 802.117 451.807C803.075 452.652 803.695 453.948 804.428 455.019L804.653 454.85C802.343 453.948 800.032 453.046 797.665 452.145L797.891 452.37L797.947 452.314Z" fill="#e6e7e8"/>
<path d="M828.321 298.018C823.756 286.747 820.206 276.603 817.896 266.065C821.728 270.066 828.828 291.368 828.321 298.018Z" fill="#e6e7e8"/>
<path d="M298.881 381.872C298.035 378.265 297.246 374.602 296.401 370.996C295.725 368.009 295.049 364.966 294.429 361.979L294.316 362.148C294.316 362.148 294.823 362.317 294.879 362.486C298.43 373.926 301.924 385.309 305.474 396.749L305.643 396.636C304.403 394.157 303.163 391.734 302.036 389.198C300.853 386.718 299.839 384.126 298.711 381.59L298.881 381.815V381.872Z" fill="#e6e7e8"/>
<path d="M454.19 709.286C449.175 699.593 444.216 689.844 439.2 680.152C438.862 679.475 438.637 678.743 438.919 677.728C444.272 688.154 451.26 697.734 454.021 709.399L454.19 709.286Z" fill="#e6e7e8"/>
<path d="M876.221 405.766L875.714 403.568C873.629 399.454 871.544 395.284 869.459 391.17L869.684 391.396C868.219 386.887 866.81 382.435 865.345 377.927L865.176 378.04C866.078 379.111 867.261 380.069 867.825 381.308C872.446 391.621 876.898 401.934 881.406 412.303C879.659 410.105 877.912 407.964 876.165 405.766H876.221Z" fill="#e6e7e8"/>
<path d="M213.503 609.597C212.658 609.202 211.756 608.864 210.911 608.469C210.911 607.286 210.911 606.103 210.911 604.919L210.798 605.088C217.11 611.851 223.421 618.613 229.733 625.376L229.902 625.263C228.155 623.91 226.295 622.783 224.717 621.262C220.885 617.486 217.222 613.541 213.503 609.653V609.597Z" fill="#e6e7e8"/>
<path d="M191.919 586.153C192.483 585.703 193.554 584.801 193.61 584.857C199.414 591.563 205.106 598.326 210.798 605.088L210.91 604.919C209.164 603.454 207.36 601.989 205.613 600.467C203.697 598.777 201.781 597.086 199.865 595.396L200.091 595.677C198.738 591.225 195.526 588.351 191.75 585.928L191.863 586.153H191.919Z" fill="#e6e7e8"/>
<path d="M266.196 662.4C264.9 661.555 263.604 660.709 262.307 659.864C260.448 656.934 258.419 654.229 254.7 653.665C254.531 653.496 254.362 653.327 254.193 653.158C253.742 651.524 253.291 649.889 252.84 648.255L252.727 648.424C258.137 653.383 263.547 658.342 269.013 663.301L269.126 663.133C268.168 662.907 267.21 662.682 266.252 662.456L266.196 662.4Z" fill="#e6e7e8"/>
<path d="M638.184 521.178C642.692 527.49 647.201 533.801 651.709 540.113L651.821 540C649.905 537.859 648.046 535.717 646.13 533.632C643.932 531.209 641.678 528.786 639.48 526.419L639.705 526.701C639.255 524.841 638.804 522.981 638.297 521.122L638.128 521.234L638.184 521.178Z" fill="#e6e7e8"/>
<path d="M804.484 454.906C810.795 459.865 817.107 464.824 823.475 469.784L823.644 469.615C821.503 468.544 819.023 467.867 817.332 466.346C813.106 462.458 807.245 460.429 804.709 454.737L804.484 454.906Z" fill="#e6e7e8"/>
<path d="M425.956 651.862C429.056 657.723 432.155 663.583 435.255 669.444C434.86 669.67 434.409 669.895 434.015 670.12C430.915 664.26 427.816 658.455 424.66 652.594C425.055 652.369 425.505 652.144 425.9 651.862H425.956Z" fill="#e6e7e8"/>
<path d="M239.596 637.604C236.609 634.448 233.566 631.236 230.579 628.081C230.354 627.123 230.129 626.165 229.903 625.207L229.734 625.319C234.468 627.968 238.244 631.518 240.329 636.59C240.103 636.928 239.878 637.266 239.596 637.604Z" fill="#e6e7e8"/>
<path d="M816.545 263.022C815.08 257.95 813.615 252.879 812.149 247.863C816.207 252.146 817.278 257.387 818.01 262.741L816.601 263.079L816.545 263.022Z" fill="#e6e7e8"/>
<path d="M823.419 469.784C828.378 473.39 833.337 476.997 838.24 480.547L838.465 480.434C837.056 480.434 835.591 480.434 834.182 480.434L834.464 480.603C832.548 479.194 830.688 477.729 828.772 476.321L829.054 476.546C827.138 475.137 825.278 473.672 823.362 472.263L823.588 472.488C823.588 471.53 823.588 470.572 823.588 469.558L823.419 469.727V469.784Z" fill="#e6e7e8"/>
<path d="M306.091 406.104C306.091 404.808 306.204 403.512 306.26 402.216C306.035 400.356 305.81 398.496 305.584 396.636L305.415 396.749C307.669 403.061 309.923 409.372 312.177 415.684L312.347 415.571C311.389 414.613 310.431 413.712 309.473 412.754L309.642 413.035C309.36 410.274 309.078 407.456 306.091 406.048V406.104Z" fill="#e6e7e8"/>
<path d="M728.52 387.564C729.365 387.62 730.493 387.395 731 387.845C735.057 391.508 738.946 395.34 742.552 399.511C738.946 399.173 737.762 395.735 735.339 393.819C732.916 391.903 730.887 389.536 728.633 387.395L728.464 387.564H728.52Z" fill="#e6e7e8"/>
<path d="M294.427 361.979C292.568 354.371 290.708 346.707 288.848 339.1L288.736 339.212C289.525 341.185 290.595 343.044 291.046 345.073C292.286 350.708 293.244 356.4 294.315 362.092L294.427 361.923V361.979Z" fill="#e6e7e8"/>
<path d="M865.29 377.927C862.529 372.235 859.767 366.544 857.006 360.852C857.513 360.626 857.964 360.401 858.471 360.232C860.951 366.093 864.726 371.39 865.177 378.04L865.29 377.927Z" fill="#e6e7e8"/>
<path d="M651.709 540.113C656.724 544.057 660.105 549.186 662.529 554.99L662.641 554.877C657.682 550.876 654.132 545.917 651.821 540L651.709 540.113Z" fill="#e6e7e8"/>
<path d="M859.259 498.073C857.062 496.326 854.92 494.523 852.722 492.776C852.384 491.818 852.103 490.86 851.764 489.902C855.935 492.945 860.105 495.988 864.275 499.031C862.584 498.693 860.95 498.411 859.259 498.073Z" fill="#e6e7e8"/>
<path d="M314.941 427.011C314.772 425.94 314.603 424.87 314.377 423.799C313.701 421.038 313.025 418.276 312.349 415.515L312.179 415.628C314.434 421.488 316.688 427.406 318.942 433.266L319.111 433.097C317.702 431.069 316.293 428.984 314.941 426.955V427.011Z" fill="#e6e7e8"/>
<path d="M521.815 312.219L521.928 311.937C521.139 309.401 520.293 306.865 519.504 304.329L520.293 303.991C522.266 309.063 524.294 314.135 526.267 319.207L526.38 319.038C524.858 316.784 523.28 314.473 521.759 312.219H521.815Z" fill="#e6e7e8"/>
<path d="M363.631 536.562C362.786 535.266 361.884 534.026 361.039 532.73C360.588 530.194 360.194 527.659 359.743 525.123L359.574 525.235C361.828 529.744 364.082 534.308 366.336 538.817L366.505 538.648C365.547 537.971 364.589 537.239 363.631 536.562Z" fill="#e6e7e8"/>
<path d="M401.33 607.906C405.557 611.457 406.853 616.641 408.882 621.375C405.388 617.374 402.795 612.922 401.443 607.793L401.274 607.963L401.33 607.906Z" fill="#e6e7e8"/>
<path d="M806.063 255.921C808.373 258.063 813.107 258.626 811.078 264.375C808.88 261.444 805.33 260.035 806.232 255.752L806.063 255.921Z" fill="#e6e7e8"/>
<path d="M850.018 488.718C848.214 488.098 846.411 487.479 844.664 486.802C842.466 485.901 840.325 484.943 838.183 483.985L838.521 484.097C838.521 482.914 838.521 481.731 838.521 480.491L838.296 480.603C842.184 483.308 846.129 486.013 850.018 488.718Z" fill="#e6e7e8"/>
<path d="M881.63 414.05C883.884 419.121 886.138 424.137 888.393 429.209L888.562 429.096C887.547 427.462 886.476 425.884 885.462 424.25C884.166 422.221 882.926 420.192 881.63 418.164L881.799 418.445C881.799 416.98 881.686 415.459 881.63 413.993V414.05Z" fill="#e6e7e8"/>
<path d="M601.667 468.938C601.048 467.867 600.428 466.797 599.751 465.726C599.075 463.866 598.399 462.007 597.723 460.147L597.554 460.26C599.808 463.866 602.062 467.473 604.316 471.136L604.485 471.023C603.527 470.347 602.569 469.614 601.667 468.938Z" fill="#e6e7e8"/>
<path d="M415.361 632.194C416.826 635.125 418.348 637.999 419.813 640.929C419.475 641.098 419.193 641.267 418.855 641.436L414.347 632.758L415.361 632.138V632.194Z" fill="#e6e7e8"/>
<path d="M504.964 261.162C509.247 263.135 507.444 267.756 508.627 271.024C507.388 267.756 506.148 264.431 504.964 261.106V261.162Z" fill="#e6e7e8"/>
<path d="M573.999 535.21C572.421 533.181 570.843 531.153 569.265 529.124C569.434 528.955 569.66 528.729 569.829 528.56C571.406 529.969 573.097 531.265 574.506 532.787C574.788 533.069 574.055 534.252 573.83 535.041L573.999 535.21Z" fill="#e6e7e8"/>
<path d="M239.597 637.604C239.879 637.266 240.104 636.928 240.33 636.59C243.767 637.153 245.289 639.689 246.416 642.62C245.12 642.225 243.823 641.831 242.527 641.437C241.569 640.14 240.555 638.9 239.597 637.604Z" fill="#e6e7e8"/>
<path d="M526.323 319.207C527.393 321.799 528.52 324.335 529.591 326.927C526.886 324.898 525.872 322.306 526.435 319.094L526.323 319.207Z" fill="#e6e7e8"/>
<path d="M888.34 429.153C889.579 431.407 890.876 433.661 892.115 435.971C891.946 436.084 891.834 436.197 891.665 436.253C890.538 435.182 889.41 434.168 888.227 433.097L888.452 433.323C888.452 431.914 888.452 430.449 888.452 429.04L888.283 429.153H888.34Z" fill="#e6e7e8"/>
<path d="M503.781 248.088C500.682 246.454 500.682 243.58 501.02 240.537C501.922 243.073 502.823 245.552 503.781 248.088Z" fill="#e6e7e8"/>
<path d="M604.314 471.136C606.118 473.841 607.921 476.546 609.724 479.307L609.893 479.138L605.667 476.377L605.892 476.659C605.442 474.799 604.991 472.939 604.54 471.023L604.371 471.136H604.314Z" fill="#e6e7e8"/>
<path d="M503.782 248.089C504.176 252.428 504.571 256.767 504.965 261.106C504.571 256.767 504.176 252.428 503.838 248.032L503.782 248.089Z" fill="#e6e7e8"/>
<path d="M789.775 253.949C785.774 254.513 785.83 252.259 786.168 249.554C790.338 249.103 788.197 252.822 789.718 253.949H789.775Z" fill="#e6e7e8"/>
<path d="M514.093 286.803C512.966 284.606 511.895 282.408 510.768 280.21C511.275 280.041 511.782 279.872 512.233 279.703C512.797 282.126 513.36 284.549 513.924 286.972L514.093 286.803Z" fill="#e6e7e8"/>
<path d="M159.403 544.17C160.925 545.692 162.502 547.157 164.024 548.678C163.799 548.904 163.573 549.129 163.348 549.355C161.995 548.453 160.699 547.551 159.347 546.706L159.572 546.932C159.572 545.974 159.572 545.015 159.572 544.001L159.403 544.114V544.17Z" fill="#e6e7e8"/>
<path d="M250.022 647.523C249.402 646.903 248.782 646.283 248.162 645.663C247.486 644.592 246.866 643.522 246.19 642.451C249.233 643.465 251.713 645.156 252.727 648.368L252.84 648.199C251.882 647.973 250.924 647.748 250.022 647.523Z" fill="#e6e7e8"/>
<path d="M751.624 408.921C750.553 408.02 749.482 407.062 748.355 406.16C748.581 405.878 748.806 405.653 748.975 405.371C750.159 406.329 751.342 407.287 752.525 408.245C752.244 408.471 751.906 408.696 751.624 408.921Z" fill="#e6e7e8"/>
<path d="M848.89 334.76C847.481 333.126 846.016 331.435 844.607 329.801V329.914C845.96 331.548 847.368 333.182 848.834 334.817H848.89V334.76Z" fill="#e6e7e8"/>
<path d="M844.607 329.801L842.972 324.447C843.31 324.391 843.648 324.335 843.987 324.278C844.212 326.138 844.381 327.998 844.55 329.914L844.607 329.801Z" fill="#e6e7e8"/>
<path d="M498.316 222.448C497.583 221.095 496.851 219.743 496.118 218.334C496.344 218.221 496.513 218.108 496.738 217.996C497.245 219.461 497.809 220.982 498.316 222.448Z" fill="#e6e7e8"/>
<path d="M498.316 222.447V228.365C498.316 228.365 498.034 228.365 497.865 228.365C498.034 226.392 498.203 224.42 498.316 222.447Z" fill="#e6e7e8"/>
<path d="M848.834 334.817C849.116 336.451 849.454 338.085 849.792 340.001C847.257 338.592 847.876 336.733 848.891 334.817H848.834Z" fill="#e6e7e8"/>
<path d="M189.327 581.194C188.595 580.349 187.862 579.504 187.073 578.659C187.298 578.489 187.524 578.264 187.693 578.095C188.425 578.94 189.158 579.842 189.891 580.687C189.665 580.856 189.496 581.025 189.271 581.194H189.327Z" fill="#e6e7e8"/>
<path d="M513.982 286.916C514.714 288.55 515.503 290.128 516.236 291.762C515.785 291.875 515.334 291.988 514.883 292.101C514.658 290.354 514.376 288.55 514.151 286.803L513.982 286.972V286.916Z" fill="#e6e7e8"/>
<path d="M854.356 350.201C854.864 351.554 855.371 352.85 855.878 354.202C855.653 354.315 855.371 354.428 855.145 354.54C854.525 353.244 853.906 352.004 853.286 350.708C853.624 350.539 854.018 350.37 854.356 350.201Z" fill="#e6e7e8"/>
<path d="M789.493 258.796C786.506 257.556 786.506 256.936 789.718 253.949C789.605 255.64 789.493 257.274 789.324 258.965L789.493 258.852V258.796Z" fill="#e6e7e8"/>
<path d="M398.738 602.327C399.584 604.187 400.485 606.046 401.331 607.906L401.5 607.737C400.542 607.23 399.64 606.723 398.682 606.159L398.908 606.441C398.908 605.032 398.908 603.623 398.908 602.158L398.738 602.271V602.327Z" fill="#e6e7e8"/>
<path d="M806.512 199.624C805.892 198.385 805.215 197.201 804.596 195.961C804.765 195.849 804.99 195.736 805.159 195.68C805.61 197.032 806.061 198.328 806.512 199.681V199.624Z" fill="#e6e7e8"/>
<path d="M286.877 327.434C286.877 326.42 286.764 325.405 286.708 324.391C286.933 324.391 287.215 324.391 287.441 324.391C287.441 325.405 287.553 326.42 287.61 327.434C287.384 327.434 287.159 327.434 286.877 327.434Z" fill="#e6e7e8"/>
<path d="M757.26 412.585C757.824 413.261 758.387 413.937 758.951 414.613C758.725 414.839 758.5 415.008 758.274 415.233L756.302 413.43C756.64 413.148 756.978 412.866 757.316 412.585H757.26Z" fill="#e6e7e8"/>
<path d="M806.513 199.624C806.682 201.259 806.908 202.949 807.077 204.583H806.513C806.513 202.949 806.513 201.259 806.513 199.624Z" fill="#e6e7e8"/>
<path d="M288.849 339.1C288.624 337.578 288.455 336.113 288.229 334.591C288.398 334.591 288.567 334.591 288.793 334.591C288.793 336.113 288.793 337.691 288.793 339.269L288.906 339.156L288.849 339.1Z" fill="#e6e7e8"/>
</svg>
